<mxfile host="app.diagrams.net" modified="2024-06-27T06:59:34.329Z" agent="Mozilla/5.0 (Windows NT 10.0; Win64; x64) AppleWebKit/537.36 (KHTML, like Gecko) Chrome/126.0.0.0 Safari/537.36 Edg/126.0.0.0" version="24.6.2" etag="PohOqcBcrM0DC6Uji7od" type="github">
  <diagram name="第 1 页" id="3zmAFgzHph8zG7AHH186">
    <mxGraphModel>
      <root>
        <mxCell id="0" />
        <mxCell id="1" parent="0" />
      </root>
    </mxGraphModel>
  </diagram>
</mxfile>
